Coordinates
version=1
nRows=10
nColumns=40
inDegrees=yes

Units are S.I. units (second, meters, Newtons, ...)
If the header above contains a line with 'inDegrees', this indicates whether rotational values are in degrees (yes) or radians (no).

endheader
time	pelvis_tilt	pelvis_list	pelvis_rotation	pelvis_tx	pelvis_ty	pelvis_tz	hip_flexion_r	hip_adduction_r	hip_rotation_r	knee_angle_r	knee_angle_r_beta	ankle_angle_r	subtalar_angle_r	mtp_angle_r	hip_flexion_l	hip_adduction_l	hip_rotation_l	knee_angle_l	knee_angle_l_beta	ankle_angle_l	subtalar_angle_l	mtp_angle_l	lumbar_extension	lumbar_bending	lumbar_rotation	arm_flex_r	arm_add_r	arm_rot_r	elbow_flex_r	pro_sup_r	wrist_flex_r	wrist_dev_r	arm_flex_l	arm_add_l	arm_rot_l	elbow_flex_l	pro_sup_l	wrist_flex_l	wrist_dev_l
      2.65000000	     -1.48065109	     -2.34230221	     -0.02384032	     -0.34118435	      0.95296683	     -0.98301142	     42.05756772	     -1.24936105	      2.61307523	     24.10497320	      0.42071115	      4.66901303	      0.00000000	      0.00000000	     33.67119793	     -2.64602717	     -3.36371473	     58.09352931	      1.01392336	     13.76532798	      0.00000000	      0.00000000	    -10.98017746	     -3.04742033	     -4.51792911	     89.88511109	     -2.78701702	     49.06933038	     44.32474574	     83.65252067	      0.00000000	      0.00000000	     89.93213096	    -15.82843376	     50.46997140	     49.44515190	     87.14975471	      0.00000000	      0.00000000
      2.65500000	     -1.49898772	     -2.35030201	      0.01366220	     -0.34181538	      0.95198799	     -0.98297146	     42.24281658	     -1.23622208	      2.59358625	     24.13476214	      0.42123106	      4.77199504	      0.00000000	      0.00000000	     33.85243702	     -2.64466261	     -3.32078546	     58.32990593	      1.01804891	     13.87081847	      0.00000000	      0.00000000	    -11.01766214	     -3.03564525	     -4.56438018	     89.88610657	     -2.76479575	     48.99657691	     44.35372160	     82.79135759	      0.00000000	      0.00000000	     89.93243783	    -15.82554794	     50.39230317	     49.43169063	     87.23066759	      0.00000000	      0.00000000
      2.66000000	     -1.58533738	     -2.35127904	      0.16823887	     -0.34288036	      0.95092094	     -0.98311969	     42.53822123	     -1.33531155	      2.47261478	     24.17340347	      0.42190548	      4.57904668	      0.00000000	      0.00000000	     34.15565858	     -2.53837271	     -3.14929714	     58.54642165	      1.02182782	     13.86127692	      0.00000000	      0.00000000	    -11.02401038	     -3.00783650	     -4.70766683	     89.88804960	     -2.72746579	     48.60482178	     44.35816488	     83.71095249	      0.00000000	      0.00000000	     89.93305697	    -15.79976845	     50.18447302	     49.48485968	     87.06825341	      0.00000000	      0.00000000
      2.66500000	     -1.67377430	     -2.32860575	      0.15395029	     -0.34317157	      0.94979912	     -0.98306693	     42.81827405	     -1.33252598	      2.40242449	     24.26061849	      0.42342767	      4.70804927	      0.00000000	      0.00000000	     34.37782687	     -2.52896328	     -3.15204913	     58.77972358	      1.02589971	     14.05742514	      0.00000000	      0.00000000	    -10.95809403	     -3.04055711	     -4.67306765	     89.88856692	     -2.79231232	     48.62411177	     44.44256249	     83.51377242	      0.00000000	      0.00000000	     89.93315954	    -15.71432955	     50.10096066	     49.39858207	     87.06698258	      0.00000000	      0.00000000
      2.67000000	     -1.70001130	     -2.30411334	      0.24918193	     -0.34398316	      0.94880997	     -0.98307080	     43.03693421	     -1.39511034	      2.34472594	     24.30989260	      0.42428767	      4.76989634	      0.00000000	      0.00000000	     34.59873267	     -2.42122745	     -2.96723210	     59.03756045	      1.03039981	     14.06177537	      0.00000000	      0.00000000	    -11.01412593	     -3.06935746	     -4.79454575	     89.88908942	     -2.73455993	     48.39763669	     44.46688862	     83.45345717	      0.00000000	      0.00000000	     89.93365597	    -15.72408945	     49.99686708	     49.44446974	     87.11463889	      0.00000000	      0.00000000
      2.67500000	     -1.87178655	     -2.24502266	      0.11916973	     -0.34446836	      0.94741482	     -0.98291936	     43.46987730	     -1.34181418	      2.46409502	     24.47920427	      0.42724271	      4.87899664	      0.00000000	      0.00000000	     34.92684593	     -2.44882380	     -3.10798088	     59.30633149	      1.03509075	     14.22122779	      0.00000000	      0.00000000	    -10.85204127	     -3.14060405	     -4.66600000	     89.88972317	     -2.74809905	     48.33415011	     44.47689110	     83.76430758	      0.00000000	      0.00000000	     89.93370912	    -15.69724373	     49.91720817	     49.43161988	     87.07224211	      0.00000000	      0.00000000
      2.68000000	     -1.77955939	     -2.42334627	      0.17565193	     -0.34508466	      0.94664197	     -0.98289959	     43.49368647	     -1.20873577	      2.20920797	     24.40880714	      0.42601405	      4.81528812	      0.00000000	      0.00000000	     35.01695235	     -2.61159370	     -3.00097239	     59.59126160	      1.04006372	     14.33194125	      0.00000000	      0.00000000	    -11.01052847	     -2.94292789	     -4.65832072	     89.89105452	     -2.78743548	     48.28832871	     44.53632510	     83.33378549	      0.00000000	      0.00000000	     89.93412095	    -15.62871418	     49.78501246	     49.36928068	     87.09720461	      0.00000000	      0.00000000
      2.68500000	     -1.86730617	     -2.34618791	      0.16150941	     -0.34588203	      0.94561494	     -0.98282229	     43.79883407	     -1.22044966	      2.32951722	     24.51022203	      0.42778407	      4.88561330	      0.00000000	      0.00000000	     35.26422666	     -2.51325687	     -2.96063957	     59.78220871	      1.04339638	     14.45320398	      0.00000000	      0.00000000	    -10.99380619	     -3.02702467	     -4.67474113	     89.89199912	     -2.72262998	     48.01594091	     44.54429178	     83.81607235	      0.00000000	      0.00000000	     89.93447617	    -15.63805418	     49.71262966	     49.40033319	     87.00802774	      0.00000000	      0.00000000
      2.69000000	     -2.02111793	     -2.36729209	      0.19169185	     -0.34657387	      0.94444153	     -0.98289319	     44.15214466	     -1.21049935	      2.28931139	     24.55524836	      0.42856993	      4.84882743	      0.00000000	      0.00000000	     35.60193778	     -2.46552537	     -2.82319451	     60.01673752	      1.04748968	     14.57129311	      0.00000000	      0.00000000	    -10.88575480	     -2.99068096	     -4.69825110	     89.89315218	     -2.79464550	     48.29615851	     44.67389405	     81.03242865	      0.00000000	      0.00000000	     89.93454233	    -15.60147668	     49.53592536	     49.38392570	     87.22466342	      0.00000000	      0.00000000
      2.69500000	     -1.98583606	     -2.37582016	      0.14299352	     -0.34689411	      0.94330073	     -0.98276504	     44.29420371	     -1.16085141	      2.21453038	     24.59561769	      0.42927451	      4.94449613	      0.00000000	      0.00000000	     35.70480752	     -2.52002231	     -2.88918791	     60.29390305	      1.05232713	     14.83569553	      0.00000000	      0.00000000	    -10.94140434	     -2.99423663	     -4.64623846	     89.89356176	     -2.74690005	     47.91189480	     44.60680678	     83.79603017	      0.00000000	      0.00000000	     89.93482622	    -15.59343008	     49.51746517	     49.38834725	     87.04168968	      0.00000000	      0.00000000
